PathFileType	4	(X/Y/Z)	..\data\2015007\dynamic\2015007_C4_04.trc
DataRate	CameraRate	NumFrames	NumMarkers	Units	OrigDataRate	OrigDataStartFrame	OrigNumFrames
100.000000	100.000000	4	52	mm	100.000000	101	162
Frame#	Time	L_IAS			L_IPS			R_IPS			R_IAS			L_FTC			L_FLE			L_FME			L_FAX			L_TTC			L_FAL			L_TAM			L_FCC			L_FM1			L_FM2			L_FM5			R_FTC			R_FLE			R_FME			R_FAX			R_TTC			R_FAL			R_TAM			R_FCC			R_FM1			R_FM2			R_FM5			CV7			TV10			SXS			SJN			L_SIA			L_SRS			L_SAA			L_SAE			L_HLE			L_HME			L_UOA			L_RSP			L_UHE			L_HM2			L_HM5			R_SIA			R_SRS			R_SAA			R_SAE			R_HLE			R_HME			R_UOA			R_RSP			R_UHE			R_HM2			R_HM5			
		X1	Y1	Z1	X2	Y2	Z2	X3	Y3	Z3	X4	Y4	Z4	X5	Y5	Z5	X6	Y6	Z6	X7	Y7	Z7	X8	Y8	Z8	X9	Y9	Z9	X10	Y10	Z10	X11	Y11	Z11	X12	Y12	Z12	X13	Y13	Z13	X14	Y14	Z14	X15	Y15	Z15	X16	Y16	Z16	X17	Y17	Z17	X18	Y18	Z18	X19	Y19	Z19	X20	Y20	Z20	X21	Y21	Z21	X22	Y22	Z22	X23	Y23	Z23	X24	Y24	Z24	X25	Y25	Z25	X26	Y26	Z26	X27	Y27	Z27	X28	Y28	Z28	X29	Y29	Z29	X30	Y30	Z30	X31	Y31	Z31	X32	Y32	Z32	X33	Y33	Z33	X34	Y34	Z34	X35	Y35	Z35	X36	Y36	Z36	X37	Y37	Z37	X38	Y38	Z38	X39	Y39	Z39	X40	Y40	Z40	X41	Y41	Z41	X42	Y42	Z42	X43	Y43	Z43	X44	Y44	Z44	X45	Y45	Z45	X46	Y46	Z46	X47	Y47	Z47	X48	Y48	Z48	X49	Y49	Z49	X50	Y50	Z50	X51	Y51	Z51	X52	Y52	Z52	

102	1.01	1033.732788085938	892.354675292969	-395.9611816406251	825.2210083007815	911.904479980469	-295.5548095703126	842.2583007812502	909.007751464844	-193.6616210937501	1062.917602539063	893.005798339844	-146.2479095458985	925.9717407226565	797.5157470703127	-442.4613342285157	867.6795043945315	431.3464355468751	-368.1457824707032	871.4182128906252	421.4620361328126	-245.0562133789063	836.0432739257815	378.6526184082032	-369.4402770996094	887.7342529296877	357.5018005371094	-321.7415161132813	731.6559448242189	74.1416702270508	-306.1873168945313	758.2794799804689	78.8684539794922	-227.1539611816407	684.6329345703126	34.14373779296876	-249.387924194336	858.8830566406252	19.68869018554688	-259.1118774414063	857.3424072265627	28.66489601135255	-310.7624206542969	796.214782714844	14.67238426208496	-343.8916015625001	982.5914306640627	791.8103027343752	-75.01622772216798	1121.217895507813	444.7206115722657	-133.2349090576172	1107.844970703125	420.345672607422	-261.3616027832032	1125.18212890625	390.9769592285157	-126.0358810424805	1177.38818359375	399.2672119140626	-173.9979553222657	1225.080932617188	74.06980895996095	-152.8979034423828	1252.737548828125	100.4937438964844	-229.7222442626954	1211.249877929688	14.40300750732422	-211.7655944824219	1372.110107421875	83.05096435546876	-208.1382904052735	1361.169677734375	85.76670837402345	-168.3978118896485	1323.179077148438	43.90582275390626	-122.8454895019532	945.275085449219	1398.03759765625	-248.9844207763672	839.5665283203127	1162.430786132813	-267.7301635742188	1104.5712890625	1058.885986328125	-270.1204833984376	1056.228759765625	1312.373413085938	-260.0767211914063	839.9302368164065	1212.103637695313	-351.5171508789063	885.4743652343752	1339.445556640625	-356.9440307617188	931.0048828125002	1344.110595703125	-418.9355468750001	980.693298339844	1350.224243164063	-430.8562316894532	983.526550292969	1041.216674804688	-519.2565917968751	957.432067871094	1024.620727539063	-446.1351318359376	959.6214599609377	1009.340759277344	-494.2694091796876	1135.069458007813	853.943542480469	-494.9489746093751	1074.921020507813	832.1130981445315	-541.4874267578126	1177.255981445313	803.4497680664065	-507.6135864257814	1093.614013671875	773.7659912109377	-544.8306884765626	838.055603027344	1201.5390625	-186.6306915283203	884.9003906250002	1324.402709960938	-175.7626953125	936.2158813476565	1322.140258789063	-104.790283203125	984.0535278320315	1324.974365234375	-85.58301544189455	930.4761962890627	1011.685363769531	-22.92981719970703	894.373962402344	1005.714782714844	-87.68981170654298	901.2796020507815	985.6727294921877	-41.77583312988282	991.7998657226565	789.3679199218752	-25.45287322998048	944.945739746094	794.6915283203127	13.72766494750977	1009.954833984375	709.9931640625001	-14.55033016204834	939.1069946289065	727.0464477539064	26.19479942321778	
103	1.02	1044.516357421875	891.1150512695315	-396.141326904297	836.6331787109377	910.6861572265627	-294.2116699218751	854.3239746093752	907.6676025390627	-192.5009765625001	1075.042724609375	891.3780517578127	-146.3365936279297	936.284606933594	796.535339355469	-441.8585510253907	876.7151489257815	430.3746643066407	-368.0524902343751	880.531433105469	420.4903259277345	-245.022201538086	844.210876464844	378.0918884277344	-369.2664184570313	895.5254516601565	356.1056518554688	-321.5821838378907	732.8167724609376	76.10859680175783	-306.6511535644532	759.1342163085939	80.39272308349611	-227.4807281494141	684.5794677734376	36.99517822265626	-249.9194488525391	859.1279296875002	19.82287979125977	-259.2736816406251	857.558044433594	28.7491855621338	-310.9414367675782	796.3684692382815	14.69017696380616	-343.8909912109376	994.9365844726565	790.292907714844	-74.85639953613283	1133.1630859375	443.4371032714845	-134.36767578125	1119.66162109375	419.4519653320314	-262.5588073730469	1137.566772460938	389.7191772460939	-127.41259765625	1189.502563476563	398.5529174804689	-175.6969757080078	1239.4599609375	73.83304595947267	-155.481201171875	1266.300537109375	100.3355331420899	-232.4642181396485	1225.294311523438	14.30668449401856	-214.2402954101563	1386.166381835938	83.17245483398439	-212.1135711669922	1375.591064453125	85.7577362060547	-172.2865753173828	1338.108520507813	43.88110351562501	-126.5026550292969	956.9194946289065	1396.649291992188	-248.4997100830079	851.0076904296877	1161.07275390625	-267.0343017578126	1115.861450195313	1057.45556640625	-269.7700500488282	1067.851806640625	1310.957641601563	-259.6295166015626	851.3887329101565	1210.717895507813	-350.7873535156251	897.0002441406252	1338.023559570313	-356.3510131835938	942.4487304687502	1342.558837890625	-418.4018859863282	992.1464843750002	1348.663940429688	-430.3881225585939	995.9497070312502	1039.830078125	-518.9451293945314	969.6751098632815	1023.005554199219	-445.9544067382814	972.2122802734377	1007.635559082031	-494.0845642089845	1149.662475585938	854.4211425781252	-493.826141357422	1089.820068359375	831.514343261719	-540.2827148437501	1192.63720703125	804.590026855469	-506.272918701172	1109.498779296875	773.4631347656252	-543.4293823242189	849.663024902344	1200.21337890625	-185.964584350586	896.6008300781252	1323.069458007813	-175.1778259277344	947.9483032226565	1320.80615234375	-104.2636260986328	995.8254394531252	1323.62353515625	-85.06369018554689	940.861999511719	1010.605895996094	-22.41841125488282	904.9155273437502	1004.609680175781	-87.28804016113283	911.5357055664065	984.8350830078127	-41.3203353881836	1000.26904296875	787.8204345703127	-24.3752841949463	953.383239746094	793.686462402344	14.79583072662354	1017.518249511719	708.2132568359376	-13.27289772033692	946.821716308594	726.0906982421876	27.39415168762208	
104	1.03	1055.481567382813	889.9765625000002	-396.2970275878907	848.2703857421877	909.5527343750002	-292.8055419921876	866.5994873046877	906.476013183594	-191.2440643310547	1087.353515625	889.927673339844	-146.4287719726563	946.9287109375002	795.567565917969	-441.1850585937501	886.4039306640627	429.368621826172	-368.0562744140626	890.1787109375002	419.4443969726564	-245.0639190673829	852.9719848632815	377.5589904785157	-369.2066040039063	903.8999633789065	354.6436462402344	-321.5484619140626	734.1479492187501	78.47609710693361	-307.3326416015626	760.1634521484376	82.2599563598633	-228.0251007080079	684.6312866210939	40.38246154785157	-250.6565704345704	859.310485839844	19.91148567199707	-259.4012756347657	857.7053833007815	28.796049118042	-311.1018371582032	796.5179443359377	14.69547367095948	-343.9280090332032	1007.556884765625	788.9910888671877	-74.5977020263672	1145.424926757813	442.3330078125001	-135.4996948242188	1131.942016601563	418.865936279297	-263.7655029296876	1150.00927734375	388.5814514160157	-128.8189697265625	1201.642944335938	397.6304016113282	-177.3842926025391	1251.303588867188	73.16004180908205	-157.9364318847657	1277.475708007813	99.46120452880862	-235.1646575927735	1236.13427734375	13.99878978729248	-216.4600982666016	1397.517944335938	81.58218383789064	-216.0742645263672	1387.326538085938	84.22048950195314	-176.1481475830078	1350.095703125	42.74530410766602	-130.0957183837891	968.6700439453127	1395.391967773438	-247.8967285156251	862.543884277344	1159.849487304688	-266.2552185058594	1127.346557617188	1056.1767578125	-269.3700256347657	1079.589965820313	1309.688720703125	-259.0770263671876	862.982360839844	1209.457885742188	-349.9519958496094	908.6400146484377	1336.73291015625	-355.6344299316407	953.998229980469	1341.157592773438	-417.7483215332032	1003.693786621094	1347.264038085938	-429.8139953613282	1008.09228515625	1038.577758789063	-518.5146484375001	981.721130371094	1021.5458984375	-445.6470336914064	984.518005371094	1006.109375	-493.7673645019532	1163.757568359375	854.8640136718752	-492.6775207519532	1104.1591796875	830.937927246094	-538.9736328125001	1207.451782226563	805.6849365234377	-504.959442138672	1124.755981445313	773.1699829101565	-541.9125366210939	861.3821411132815	1199.0029296875	-185.1907653808594	908.4171142578127	1321.846435546875	-174.4722595214844	959.8084106445315	1319.586791992188	-103.6167907714844	1007.725524902344	1322.39111328125	-84.43321228027345	951.5203857421877	1009.621459960938	-21.83402061462403	915.667175292969	1003.589050292969	-86.79846954345705	922.0643310546877	984.082702636719	-40.79158401489259	1009.071594238281	786.400817871094	-23.30802536010743	962.1691894531252	792.7915039062502	15.88723945617676	1025.43310546875	706.5733032226564	-12.01543807983399	954.9157714843752	725.2441406250001	28.60710525512696	
105	1.04	1066.669921875	888.9397583007815	-396.3917846679689	860.140563964844	908.5013427734377	-291.3904724121094	879.064147949219	905.4495849609377	-189.9413146972657	1099.8388671875	888.7109985351565	-146.4942016601563	957.939392089844	794.601501464844	-440.4470214843751	896.7797851562502	428.3325805664064	-368.1804199218751	900.413024902344	418.3093261718751	-245.2025299072266	862.3543701171877	377.0716552734376	-369.2810058593751	912.8981933593752	353.1172485351563	-321.6872558593751	735.7135620117189	81.29197692871095	-308.2020263671876	761.4842529296876	84.49326324462892	-228.7776184082032	684.9203491210939	44.39111709594727	-251.5397949218751	859.389099121094	19.92245674133301	-259.4642333984376	857.7415771484377	28.77701568603516	-311.2152099609376	796.6392822265627	14.71817207336426	-343.9761962890626	1020.430358886719	787.9456787109377	-74.24529266357423	1157.980712890625	441.4392700195314	-136.6019439697266	1144.5791015625	418.5761108398439	-264.9266967773438	1162.5322265625	387.5947265625001	-130.2091064453125	1213.812866210938	396.5533142089845	-179.0421905517578	1260.912475585938	72.08849334716798	-160.1863250732422	1286.52783203125	97.9344177246094	-237.7685546875001	1244.104858398438	13.50981616973877	-218.3510437011719	1406.458129882813	78.38696289062501	-219.9776000976563	1396.6826171875	81.24244689941408	-179.9376831054688	1359.459716796875	40.57270050048829	-133.559814453125	980.5219726562502	1394.282958984375	-247.1809082031251	874.1743164062502	1158.781860351563	-265.4036254882813	1139.0576171875	1055.064575195313	-268.9171447753907	1091.439819335938	1308.584838867188	-258.4202880859376	874.7153930664065	1208.3427734375	-349.0316162109376	920.3979492187502	1335.592895507813	-354.8102416992188	965.669372558594	1339.926879882813	-416.9857482910157	1015.349060058594	1346.044921875	-429.1398315429689	1019.965270996094	1037.473999023438	-517.9714965820314	993.5791015625002	1020.260009765625	-445.214813232422	996.5449829101565	1004.778076171875	-493.3193969726564	1177.341674804688	855.2561645507815	-491.519012451172	1117.91650390625	830.3807373046877	-537.5792846679689	1221.673095703125	806.7019042968752	-503.691375732422	1139.348999023438	772.8732910156252	-540.3016967773439	873.209411621094	1197.920166015625	-184.3233337402344	920.3433227539065	1320.74658203125	-173.6557006835938	971.7919921875002	1318.494384765625	-102.8580627441407	1019.7451171875	1321.291381835938	-83.69992828369142	962.452331542969	1008.740112304688	-21.18245124816895	926.6376953125002	1002.663391113281	-86.22316741943361	932.8687744140627	983.4226074218752	-40.19328689575196	1018.224304199219	785.1192626953127	-22.24697303771973	971.3199462890627	792.0144042968752	17.00154304504395	1033.723022460938	705.0851440429689	-10.77450275421143	963.408142089844	724.5131835937501	29.83148002624512	
